<?xml version="1.0" encoding="utf-8"?>
<!-- Generator: Adobe Illustrator 15.1.0, SVG Export Plug-In  -->
<!DOCTYPE svg PUBLIC "-//W3C//DTD SVG 1.1//EN" "http://www.w3.org/Graphics/SVG/1.1/DTD/svg11.dtd" [
	<!ENTITY ns_flows "http://ns.adobe.com/Flows/1.0/">
]>
<svg version="1.1"
	 xmlns="http://www.w3.org/2000/svg" xmlns:xlink="http://www.w3.org/1999/xlink" xmlns:a="http://ns.adobe.com/AdobeSVGViewerExtensions/3.0/"
	 x="0px" y="0px" width="73px" height="73px" viewBox="-0.313 -0.177 73 73" enable-background="new -0.313 -0.177 73 73"
	 xml:space="preserve">
<defs>
</defs>
<path fill="#466C83" d="M0,0v72.063h35.574c0.129,0.002,0.256,0.01,0.386,0.01s0.257-0.008,0.386-0.01H72V0H0z M30.077,57.62
	c-6.72,0-12.322-2.896-12.322-7.771c0-3.762,2.382-8.646,13.512-8.646c-1.653-1.347-2.059-3.231-1.047-5.271
	c-6.519,0-9.856-3.832-9.856-8.697c0-4.761,3.54-9.087,10.76-9.087h11.565l-2.584,2.712h-3.037c2.145,1.227,3.283,3.755,3.283,6.541
	c0,2.555-1.408,4.627-3.416,6.18c-3.567,2.758-2.657,4.297,1.08,7.022c3.685,2.76,4.902,4.889,4.902,8.148
	C42.918,52.75,39.268,57.62,30.077,57.62 M58.001,26.684h-5.336v5.335h-2.668v-5.335h-5.335v-2.668h5.335V18.68h2.668v5.336h5.336
	V26.684z"/>
<path fill="#466C83" d="M35.704,27.574c-0.538-4.094-3.205-7.452-6.321-7.546c-3.118-0.093-5.208,3.04-4.669,7.135
	c0.538,4.094,3.5,6.952,6.618,7.046C34.448,34.302,36.242,31.667,35.704,27.574"/>
<path fill="#466C83" d="M30.691,42.586c-4.643-0.051-8.578,2.936-8.578,6.396c0,3.531,3.353,6.471,7.997,6.471
	c5.937,0,8.808-2.76,8.808-6.291C38.918,45.795,35.845,42.586,30.691,42.586"/>
</svg>
