<?xml version="1.0" encoding="utf-8"?>
<!-- Generator: Adobe Illustrator 15.1.0, SVG Export Plug-In  -->
<!DOCTYPE svg PUBLIC "-//W3C//DTD SVG 1.1//EN" "http://www.w3.org/Graphics/SVG/1.1/DTD/svg11.dtd" [
	<!ENTITY ns_flows "http://ns.adobe.com/Flows/1.0/">
]>
<svg version="1.1"
	 xmlns="http://www.w3.org/2000/svg" xmlns:xlink="http://www.w3.org/1999/xlink" xmlns:a="http://ns.adobe.com/AdobeSVGViewerExtensions/3.0/"
	 x="0px" y="0px" width="73px" height="73px" viewBox="-0.145 -0.938 73 73" enable-background="new -0.145 -0.938 73 73"  fill="#456c83"
	 xml:space="preserve">
<defs>
</defs>
<path d="M0,0v72.063h35.893H72V0H0z M43.772,28.979c-1.88-1.907-4.491-3.091-7.381-3.091c-2.89,0-5.501,1.184-7.38,3.091H16.174
	v-5.258c0-2.7,1.337-5.084,3.383-6.535v8.622h1.642V16.29c0.372-0.15,0.758-0.272,1.156-0.364v9.882h1.641v-10.09
	c0.063-0.001,0.124-0.004,0.186-0.004h0.948v10.094h1.642V15.714h21.882c4.422,0,8.007,3.585,8.007,8.007v5.258H43.772z
	 M44.373,36.247c0,4.401-3.58,7.981-7.981,7.981c-4.4,0-7.98-3.58-7.98-7.981c0-2.389,1.056-4.534,2.725-5.999
	c0.585-0.513,1.246-0.941,1.963-1.269c1.005-0.456,2.119-0.713,3.292-0.713c1.174,0,2.288,0.257,3.292,0.713
	c0.718,0.328,1.378,0.756,1.964,1.269C43.316,31.713,44.373,33.858,44.373,36.247 M24.182,56.411c-4.422,0-8.008-3.585-8.008-8.007
	V30.248h11.775c-1.206,1.693-1.917,3.763-1.917,5.999c0,5.722,4.638,10.36,10.359,10.36c5.722,0,10.36-4.639,10.36-10.36
	c0-2.236-0.713-4.306-1.917-5.999h11.826v18.156c0,4.422-3.584,8.007-8.007,8.007H24.182z"/>
</svg>
