<?xml version="1.0" encoding="utf-8"?>
<!-- Generator: Adobe Illustrator 15.1.0, SVG Export Plug-In  -->
<!DOCTYPE svg PUBLIC "-//W3C//DTD SVG 1.1//EN" "http://www.w3.org/Graphics/SVG/1.1/DTD/svg11.dtd" [
	<!ENTITY ns_flows "http://ns.adobe.com/Flows/1.0/">
]>
<svg version="1.1"
	 xmlns="http://www.w3.org/2000/svg" xmlns:xlink="http://www.w3.org/1999/xlink" xmlns:a="http://ns.adobe.com/AdobeSVGViewerExtensions/3.0/"
	 x="0px" y="0px" width="73px" height="74px" viewBox="-0.313 -0.938 73 74" enable-background="new -0.313 -0.938 73 74" fill="#456c83"
	 xml:space="preserve">
<defs>
</defs>
<path d="M72,0H0v72.063h72V0z M30.437,54.697c-4.715,0-9.104-1.383-12.799-3.752c4.43,0.523,8.852-0.706,12.362-3.458
	c-3.654-0.067-6.738-2.479-7.799-5.798c1.307,0.25,2.594,0.177,3.769-0.143c-4.015-0.808-6.787-4.425-6.697-8.292
	c1.126,0.625,2.414,1.001,3.783,1.044c-3.719-2.485-4.771-7.395-2.584-11.148c4.117,5.052,10.27,8.376,17.209,8.725
	c-1.217-5.224,2.744-10.253,8.134-10.253c2.401,0,4.572,1.013,6.095,2.637c1.901-0.374,3.688-1.07,5.301-2.027
	c-0.623,1.95-1.946,3.587-3.67,4.619c1.688-0.201,3.297-0.65,4.795-1.314c-1.119,1.675-2.535,3.145-4.166,4.322
	C54.698,41.603,45.94,54.697,30.437,54.697"/>
</svg>
