<?xml version="1.0" encoding="utf-8"?>
<!-- Generator: Adobe Illustrator 15.1.0, SVG Export Plug-In . SVG Version: 6.00 Build 0)  -->
<!DOCTYPE svg PUBLIC "-//W3C//DTD SVG 1.1//EN" "http://www.w3.org/Graphics/SVG/1.1/DTD/svg11.dtd">
<svg version="1.1" id="Layer_1" xmlns="http://www.w3.org/2000/svg" xmlns:xlink="http://www.w3.org/1999/xlink" x="0px" y="0px"
	 width="400px" height="123.801px" viewBox="-140.47 -43.475 400 123.801" enable-background="new -140.47 -43.475 400 123.801"
	 xml:space="preserve">
<g>
	<g>
		<g>
			<defs>
				<rect id="SVGID_1_" x="-140.47" y="-41.169" width="400.05" height="120.527"/>
			</defs>
			<clipPath id="SVGID_2_">
				<use xlink:href="#SVGID_1_"  overflow="visible"/>
			</clipPath>
			<path clip-path="url(#SVGID_2_)" d="M179.949,74.301v2.356c-0.961,0.92-2.09,1.523-3.258,1.523c-1.191,0-2.156-0.795-2.156-2.032
				c0-1.581,1.631-2.14,3.028-2.14C178.3,74.012,179.076,74.091,179.949,74.301 M180.094,79.089h1.27v-6.201
				c0-2.633-0.938-4.207-3.963-4.207c-1.337,0-2.924,0.452-3.863,0.893l0.483,1.277c0.791-0.451,2.133-0.883,3.317-0.883
				c1.774,0,2.611,0.938,2.611,2.624v0.565c-0.918-0.23-1.631-0.315-2.316-0.315c-2.173,0-4.512,0.978-4.512,3.479
				c0,1.913,1.647,3.016,3.53,3.016c1.172,0,2.355-0.374,3.338-1.438L180.094,79.089z M172.13,63.598
				c-0.479-0.164-1.168-0.374-1.838-0.374c-1.254,0-2.024,0.482-2.504,1.191c-0.479,0.709-0.643,1.687-0.643,2.727v1.791h-1.188
				v1.287h1.188v8.872h1.414V70.22h2.861v-1.287h-2.861v-1.666c0-1.129,0.082-1.963,0.646-2.402
				c0.378-0.289,0.879-0.355,1.296-0.355c0.499,0,0.915,0.106,1.273,0.251L172.13,63.598z M162.492,74.012
				c0,2.121-1.401,4.044-3.675,4.044c-2.274,0-3.675-1.923-3.675-4.044c0-2.125,1.4-4.041,3.675-4.041
				C161.091,69.971,162.492,71.887,162.492,74.012 M158.817,68.684c-3.025,0-5.136,2.369-5.136,5.328
				c0,2.955,2.11,5.331,5.136,5.331c3.029,0,5.135-2.376,5.135-5.331C163.955,71.053,161.849,68.684,158.817,68.684 M152.218,70.22
				v-1.287h-2.962v-2.539h-1.422v2.539h-1.44v1.287h1.44v5.769c0,2.106,0.981,3.295,2.967,3.295c0.604,0,1.164-0.194,1.621-0.439
				l-0.351-1.123c-0.46,0.164-0.877,0.269-1.251,0.269c-0.942,0-1.564-0.337-1.564-2.168v-5.604h2.962V70.22z M143.949,69.656
				c-0.794-0.643-1.736-0.972-2.799-0.972c-1.714,0-3.173,0.972-3.173,2.728c0,1.856,1.439,2.457,2.775,2.999
				c1.148,0.459,2.235,0.873,2.235,2.041c0,1.164-1.149,1.692-2.13,1.692c-0.962,0-1.74-0.419-2.337-1.068l-0.857,0.898
				c0.835,0.912,2.002,1.372,3.151,1.372c1.716,0,3.586-1.073,3.586-2.868c0-1.818-1.23-2.526-2.483-3.045
				c-1.293-0.545-2.605-0.938-2.605-2.147c0-0.957,1.004-1.397,1.795-1.397c0.754,0,1.499,0.295,2.063,0.729L143.949,69.656z
				 M134.885,69.656c-0.791-0.643-1.733-0.972-2.799-0.972c-1.71,0-3.167,0.972-3.167,2.728c0,1.856,1.438,2.457,2.77,2.999
				c1.152,0.459,2.235,0.873,2.235,2.041c0,1.164-1.146,1.692-2.13,1.692c-0.962,0-1.729-0.419-2.337-1.068l-0.856,0.898
				c0.837,0.912,2.005,1.372,3.153,1.372c1.713,0,3.584-1.073,3.584-2.868c0-1.818-1.228-2.526-2.481-3.045
				c-1.292-0.545-2.608-0.938-2.608-2.147c0-0.957,1.004-1.397,1.798-1.397c0.752,0,1.503,0.295,2.064,0.729L134.885,69.656z
				 M125.077,74.138c0,2.101-0.961,3.918-3.383,3.918c-2.13,0-3.489-1.732-3.489-3.773c0-2.212,1.609-3.519,3.591-3.519
				c1.211,0,2.152,0.454,3.01,1.162C124.972,72.615,125.077,73.34,125.077,74.138 M116.749,74.2c0,2.638,1.732,5.139,4.739,5.139
				c3.091,0,5.049-2.35,5.049-5.079c0-3.918-2.23-6.872-5.256-8.933l1.292-2.107l-1.02-0.669l-1.301,2.127
				c-0.79-0.461-1.607-0.854-2.444-1.205l-0.541,1.253c0.794,0.329,1.569,0.71,2.277,1.104l-1.355,2.251l1.024,0.659l1.397-2.271
				c1.526,0.998,2.737,2.212,3.508,3.711c-0.814-0.481-1.67-0.708-2.565-0.708C118.855,69.472,116.749,71.742,116.749,74.2
				 M112.493,74.301v2.356c-0.961,0.92-2.087,1.523-3.256,1.523c-1.191,0-2.152-0.795-2.152-2.032c0-1.581,1.624-2.14,3.025-2.14
				C110.843,74.012,111.617,74.091,112.493,74.301 M112.64,79.089h1.27v-6.201c0-2.633-0.935-4.207-3.964-4.207
				c-1.335,0-2.924,0.452-3.858,0.893l0.481,1.277c0.788-0.451,2.127-0.883,3.314-0.883c1.775,0,2.609,0.938,2.609,2.624v0.565
				c-0.916-0.23-1.624-0.315-2.317-0.315c-2.168,0-4.505,0.978-4.505,3.479c0,1.913,1.644,3.016,3.524,3.016
				c1.172,0,2.362-0.374,3.343-1.438L112.64,79.089z M103.741,68.933h-1.693l-4.59,5.53l-0.046-0.021V63.47h-1.418v15.616h1.418
				v-2.71l1.899-2.226l3.193,4.936h1.732l-3.964-6.077L103.741,68.933z M89.917,68.933h-1.418v10.156h1.418v-6.785
				c0.729-1.293,1.5-2.169,2.67-2.169c0.398,0,0.647,0.042,0.963,0.187l0.187-1.562c-0.292-0.063-0.584-0.079-0.857-0.079
				c-1.417,0-2.397,1.036-2.962,2.159V68.933z M83.445,74.301v2.356c-0.961,0.92-2.09,1.523-3.265,1.523
				c-1.188,0-2.149-0.795-2.149-2.032c0-1.581,1.631-2.14,3.029-2.14C81.795,74.012,82.566,74.091,83.445,74.301 M83.59,79.089
				h1.271v-6.201c0-2.633-0.938-4.207-3.967-4.207c-1.333,0-2.925,0.452-3.86,0.893l0.479,1.277c0.795-0.451,2.13-0.883,3.321-0.883
				c1.774,0,2.611,0.938,2.611,2.624v0.565c-0.922-0.23-1.631-0.315-2.319-0.315c-2.173,0-4.509,0.978-4.509,3.479
				c0,1.913,1.647,3.016,3.528,3.016c1.17,0,2.358-0.374,3.34-1.438L83.59,79.089z M73.09,64.513h-2.691l-4.804,12.122l-4.78-12.122
				h-2.672v14.576h1.542v-13.29l5.325,13.29h1.146l5.391-13.329v13.329h1.543V64.513z M50.87,79.359l0.942-1.054l-5.388-4.751
				l-0.942,1.061l1.798,1.584c-1.043,1.379-2.109,1.791-3.507,1.791c-1.877,0-3.465-1.39-3.465-3.058c0-1.378,0.794-2.5,2.086-3.085
				l0.335,0.289l0.899-1.083c-1.211-1.082-2.235-1.976-2.235-3.229c0-1.418,1.231-2.206,2.503-2.206c1.024,0,1.943,0.52,2.274,1.461
				l1.359-0.413c-0.437-1.522-2.021-2.396-3.59-2.396c-1.962,0-4.003,1.348-4.003,3.429c0,1.191,0.561,2.231,1.496,3.209
				c-1.625,0.71-2.583,2.167-2.583,4.004c0,2.291,2.189,4.427,4.63,4.427c1.857,0,3.445-0.539,4.758-2.311L50.87,79.359z
				 M28.947,68.933H27.53v10.156h1.417v-6.785c0.732-1.293,1.503-2.169,2.672-2.169c0.396,0,0.646,0.042,0.961,0.187l0.187-1.562
				c-0.296-0.063-0.584-0.079-0.856-0.079c-1.421,0-2.402,1.036-2.964,2.159V68.933z M22.473,74.301v2.356
				c-0.961,0.92-2.087,1.523-3.255,1.523c-1.191,0-2.152-0.795-2.152-2.032c0-1.581,1.627-2.14,3.028-2.14
				C20.819,74.012,21.594,74.091,22.473,74.301 M22.62,79.089h1.271v-6.201c0-2.633-0.939-4.207-3.964-4.207
				c-1.338,0-2.924,0.452-3.862,0.893l0.483,1.277c0.791-0.451,2.126-0.883,3.317-0.883c1.775,0,2.608,0.938,2.608,2.624v0.565
				c-0.915-0.23-1.627-0.315-2.313-0.315c-2.175,0-4.512,0.978-4.512,3.479c0,1.913,1.647,3.016,3.524,3.016
				c1.172,0,2.362-0.374,3.344-1.438L22.62,79.089z M3.887,68.933v10.156h1.417v-6.746c0.666-1.293,1.9-2.375,3.426-2.375
				c2.274,0,2.632,1.936,2.632,3.852v5.267h1.414v-5.499c0-3.065-0.938-4.909-3.839-4.909c-1.565,0-2.819,0.682-3.633,2.034v-1.786
				H3.887V68.933z M0.156,79.089V68.933h-1.418v6.747c-0.669,1.294-1.899,2.376-3.425,2.376c-2.274,0-2.631-1.942-2.631-3.85v-5.27
				h-1.418v5.493c0,3.065,0.938,4.916,3.843,4.916c1.565,0,2.818-0.689,3.632-2.032v1.781h1.418V79.089z M-21.088,68.933v10.156
				h1.417v-6.746c0.666-1.293,1.9-2.375,3.426-2.375c2.274,0,2.629,1.936,2.629,3.852v5.267h1.414v-5.499
				c0-3.065-0.935-4.909-3.836-4.909c-1.566,0-2.819,0.682-3.633,2.034v-1.786h-1.417V68.933z M-33.613,68.933v10.156h1.42v-6.746
				c0.663-1.293,1.897-2.375,3.422-2.375c2.274,0,2.632,1.936,2.632,3.852v5.267h1.414v-5.499c0-3.065-0.938-4.909-3.835-4.909
				c-1.569,0-2.823,0.682-3.633,2.034v-1.786h-1.42V68.933z M-39.031,64.707h-1.46v1.956h1.46V64.707z M-42.913,64.707h-1.457v1.956
				h1.457V64.707z M-38.05,74.012c0,2.121-1.402,4.044-3.675,4.044c-2.277,0-3.678-1.923-3.678-4.044
				c0-2.125,1.401-4.041,3.678-4.041C-39.451,69.968-38.05,71.887-38.05,74.012 M-41.721,68.684c-3.028,0-5.136,2.369-5.136,5.328
				c0,2.955,2.107,5.331,5.136,5.331c3.025,0,5.132-2.376,5.132-5.331C-36.59,71.053-38.696,68.684-41.721,68.684 M-50.342,79.089
				V64.513h-1.542v6.288h-8.433v-6.288h-1.542v14.576h1.542v-6.877h8.433v6.877H-50.342z"/>
		</g>
	</g>
	<polygon points="30.43,10.484 30.43,-37.172 12.948,-37.172 12.948,48.822 30.43,48.822 	"/>
	<polygon points="48.409,11.226 71.566,-15.806 51.612,-15.806 30.43,9.011 30.43,13.503 51.612,48.822 73.037,48.822 	"/>
	<g>
		<g>
			<defs>
				<rect id="SVGID_3_" x="-140.47" y="-41.169" width="400.05" height="120.527"/>
			</defs>
			<clipPath id="SVGID_4_">
				<use xlink:href="#SVGID_3_"  overflow="visible"/>
			</clipPath>
			<path clip-path="url(#SVGID_4_)" d="M-108.951,34.092h4.062c5.171,0,10.592,0,14.285-1.845c3.077-1.604,4.928-4.181,4.928-8.607
				c0-7.127-4.679-11.551-13.424-11.551h-9.85V34.092z M-108.951-2.162h4.925c10.101,0,16.007-3.317,16.007-10.074
				c0-3.935-1.602-6.392-3.695-7.987c-3.321-2.215-8.246-2.215-13.789-2.215h-3.448V-2.162z M-103.905-37.182
				c8.25,0,16.994,1.352,23.399,5.529c6.648,4.302,10.097,11.059,10.097,18.803c0,7.127-3.698,13.392-10.839,16.587
				c8.745,2.947,14.409,10.445,14.409,19.545c0,10.191-6.035,18.179-15.393,22.11c-6.527,2.704-14.901,3.437-22.659,3.437h-21.67
				v-86.011H-103.905z"/>
		</g>
		<g>
			<defs>
				<rect id="SVGID_5_" x="-140.47" y="-41.169" width="400.05" height="120.527"/>
			</defs>
			<clipPath id="SVGID_6_">
				<use xlink:href="#SVGID_5_"  overflow="visible"/>
			</clipPath>
			<path clip-path="url(#SVGID_6_)" d="M-18.449,20.694c-3.324-0.735-6.157-1.103-8.87-1.103c-6.402,0-13.913,2.329-13.913,9.952
				c0,5.651,4.676,8.597,9.851,8.597c5.051,0,9.237-2.211,12.933-5.529V20.694z M-16.11,48.835l-1.352-5.529
				c-4.187,5.158-10.718,7.003-17.612,7.003c-12.066,0-23.269-7.246-23.269-20.523c0-15.849,14.77-20.886,28.197-20.886
				c3.57,0,7.636,0.492,11.699,1.352V9.27c0-8.111-3.325-13.027-12.808-13.027c-7.387,0-13.914,2.704-19.584,5.654l-4.676-12.535
				c8.25-4.056,18.222-6.638,27.831-6.638c17.976,0,26.72,10.444,26.72,27.278v38.833H-16.11z"/>
		</g>
		<g>
			<defs>
				<rect id="SVGID_7_" x="-140.47" y="-41.169" width="400.05" height="120.527"/>
			</defs>
			<clipPath id="SVGID_8_">
				<use xlink:href="#SVGID_7_"  overflow="visible"/>
			</clipPath>
			<path clip-path="url(#SVGID_8_)" d="M116.473,20.694c-3.32-0.735-6.159-1.103-8.867-1.103c-6.405,0-13.913,2.329-13.913,9.952
				c0,5.651,4.68,8.597,9.851,8.597c5.051,0,9.234-2.211,12.93-5.529V20.694z M118.812,48.835l-1.348-5.529
				c-4.19,5.158-10.714,7.003-17.611,7.003c-12.07,0-23.279-7.246-23.279-20.523c0-15.849,14.78-20.886,28.204-20.886
				c3.566,0,7.629,0.492,11.695,1.352V9.27c0-8.111-3.32-13.027-12.804-13.027c-7.394,0-13.921,2.704-19.585,5.654L79.41-10.638
				c8.25-4.056,18.225-6.638,27.825-6.638c17.982,0,26.725,10.444,26.725,27.278v38.833H118.812z"/>
		</g>
		<g>
			<defs>
				<rect id="SVGID_9_" x="-140.47" y="-41.169" width="400.05" height="120.527"/>
			</defs>
			<clipPath id="SVGID_10_">
				<use xlink:href="#SVGID_9_"  overflow="visible"/>
			</clipPath>
			<path clip-path="url(#SVGID_10_)" d="M170.314-1.302v25.066c0,1.963,0,3.691,0.244,5.532c0.488,3.807,1.973,6.144,5.667,6.144
				c2.709,0,4.808-0.744,7.019-1.847l5.417,12.905c-4.187,2.451-10.343,3.807-15.393,3.807c-10.098,0-16.869-5.532-19.213-13.881
				c-0.984-3.195-1.228-7.009-1.228-10.825V-1.306h-8.935V-15.8h8.935v-21.287h17.486V-15.8h16.499v14.497H170.314z"/>
		</g>
	</g>
	<rect x="197.755" y="-15.8" width="17.486" height="64.631"/>
	<rect x="228.183" y="-37.165" width="17.486" height="86"/>
	<g>
		<g>
			<defs>
				<rect id="SVGID_11_" x="-140.47" y="-41.169" width="400.05" height="120.527"/>
			</defs>
			<clipPath id="SVGID_12_">
				<use xlink:href="#SVGID_11_"  overflow="visible"/>
			</clipPath>
			<path clip-path="url(#SVGID_12_)" d="M196.377-31.065c0-5.575,4.534-10.097,10.119-10.097c5.588,0,10.127,4.522,10.127,10.097
				c0,5.576-4.539,10.097-10.127,10.097C200.911-20.969,196.377-25.49,196.377-31.065"/>
		</g>
	</g>
	<polygon points="-140.46,28.309 -117.828,40.146 -117.828,28.309 	"/>
	<polygon points="236.527,28.309 236.527,39.801 259.554,28.309 	"/>
	<polygon fill="#65A0C1" points="-140.47,3.702 -140.47,7.236 -140.47,28.303 -140.47,28.309 -140.46,28.309 -117.831,28.309
		236.531,28.309 259.554,28.309 259.58,28.309 259.58,3.702 	"/>
</g>
</svg>
