<?xml version="1.0" encoding="utf-8"?>
<!-- Generator: Adobe Illustrator 16.0.0, SVG Export Plug-In . SVG Version: 6.00 Build 0)  -->
<!DOCTYPE svg PUBLIC "-//W3C//DTD SVG 1.1//EN" "http://www.w3.org/Graphics/SVG/1.1/DTD/svg11.dtd">
<svg version="1.1" id="Layer_1" xmlns="http://www.w3.org/2000/svg" xmlns:xlink="http://www.w3.org/1999/xlink" x="0px" y="0px"
	 width="119.06px" height="36.85px" viewBox="0 0 119.06 36.85" enable-background="new 0 0 119.06 36.85" xml:space="preserve">
<g>
	<defs>
		<rect id="SVGID_1_" y="0.49" width="119.055" height="35.869"/>
	</defs>
	<clipPath id="SVGID_2_">
		<use xlink:href="#SVGID_1_"  overflow="visible"/>
	</clipPath>
	<path clip-path="url(#SVGID_2_)" d="M95.357,34.854v0.701c-0.286,0.273-0.622,0.453-0.97,0.453c-0.354,0-0.641-0.236-0.641-0.604
		c0-0.471,0.485-0.637,0.901-0.637C94.866,34.768,95.097,34.791,95.357,34.854 M95.4,36.279h0.378v-1.846
		c0-0.783-0.279-1.252-1.18-1.252c-0.397,0-0.87,0.135-1.149,0.266l0.144,0.379c0.235-0.133,0.634-0.262,0.987-0.262
		c0.528,0,0.777,0.279,0.777,0.781v0.168c-0.273-0.068-0.485-0.094-0.689-0.094c-0.647,0-1.343,0.291-1.343,1.035
		c0,0.57,0.49,0.898,1.051,0.898c0.348,0,0.701-0.111,0.993-0.428L95.4,36.279z M93.03,31.668c-0.143-0.049-0.348-0.111-0.547-0.111
		c-0.373,0-0.602,0.143-0.745,0.354c-0.143,0.211-0.191,0.502-0.191,0.812v0.533h-0.354v0.383h0.354v2.641h0.421v-2.641h0.851
		v-0.383h-0.851V32.76c0-0.336,0.024-0.584,0.192-0.715c0.112-0.086,0.262-0.105,0.386-0.105c0.148,0,0.272,0.031,0.379,0.074
		L93.03,31.668z M90.162,34.768c0,0.631-0.417,1.203-1.094,1.203s-1.094-0.572-1.094-1.203c0-0.633,0.417-1.203,1.094-1.203
		S90.162,34.135,90.162,34.768 M89.068,33.182c-0.9,0-1.528,0.705-1.528,1.586c0,0.879,0.628,1.586,1.528,1.586
		c0.901,0,1.528-0.707,1.528-1.586C90.597,33.887,89.97,33.182,89.068,33.182 M87.104,33.639v-0.383h-0.882V32.5H85.8v0.756h-0.429
		v0.383H85.8v1.717c0,0.627,0.292,0.98,0.882,0.98c0.18,0,0.347-0.057,0.483-0.131l-0.105-0.334c-0.136,0.049-0.26,0.08-0.372,0.08
		c-0.28,0-0.466-0.1-0.466-0.645v-1.668H87.104z M84.643,33.471c-0.236-0.191-0.516-0.289-0.833-0.289
		c-0.509,0-0.944,0.289-0.944,0.811c0,0.553,0.429,0.732,0.826,0.893c0.342,0.137,0.665,0.26,0.665,0.607s-0.342,0.504-0.634,0.504
		c-0.286,0-0.517-0.125-0.695-0.318l-0.255,0.268c0.248,0.271,0.596,0.408,0.938,0.408c0.51,0,1.067-0.32,1.067-0.854
		c0-0.541-0.366-0.752-0.739-0.906c-0.385-0.162-0.776-0.279-0.776-0.639c0-0.285,0.299-0.416,0.535-0.416
		c0.224,0,0.446,0.088,0.614,0.217L84.643,33.471z M81.946,33.471c-0.235-0.191-0.516-0.289-0.833-0.289
		c-0.509,0-0.942,0.289-0.942,0.811c0,0.553,0.427,0.732,0.824,0.893c0.343,0.137,0.665,0.26,0.665,0.607s-0.341,0.504-0.634,0.504
		c-0.286,0-0.515-0.125-0.695-0.318l-0.255,0.268c0.249,0.271,0.597,0.408,0.938,0.408c0.51,0,1.067-0.32,1.067-0.854
		c0-0.541-0.365-0.752-0.738-0.906c-0.385-0.162-0.777-0.279-0.777-0.639c0-0.285,0.299-0.416,0.535-0.416
		c0.224,0,0.448,0.088,0.615,0.217L81.946,33.471z M79.027,34.805c0,0.625-0.286,1.166-1.007,1.166
		c-0.634,0-1.038-0.516-1.038-1.123c0-0.658,0.479-1.047,1.069-1.047c0.36,0,0.64,0.135,0.895,0.346
		C78.996,34.352,79.027,34.568,79.027,34.805 M76.549,34.824c0,0.785,0.515,1.529,1.41,1.529c0.92,0,1.503-0.699,1.503-1.512
		c0-1.166-0.664-2.045-1.565-2.658l0.385-0.627l-0.304-0.199l-0.386,0.633c-0.236-0.137-0.479-0.254-0.728-0.359l-0.161,0.373
		c0.236,0.098,0.467,0.211,0.678,0.328l-0.404,0.67l0.305,0.197l0.416-0.676c0.454,0.297,0.814,0.658,1.044,1.104
		c-0.242-0.143-0.497-0.211-0.764-0.211C77.176,33.416,76.549,34.092,76.549,34.824 M75.282,34.854v0.701
		c-0.286,0.273-0.621,0.453-0.969,0.453c-0.354,0-0.64-0.236-0.64-0.604c0-0.471,0.483-0.637,0.9-0.637
		C74.791,34.768,75.021,34.791,75.282,34.854 M75.326,36.279h0.378v-1.846c0-0.783-0.278-1.252-1.18-1.252
		c-0.397,0-0.87,0.135-1.148,0.266l0.143,0.379c0.235-0.133,0.633-0.262,0.987-0.262c0.528,0,0.776,0.279,0.776,0.781v0.168
		c-0.272-0.068-0.483-0.094-0.689-0.094c-0.646,0-1.341,0.291-1.341,1.035c0,0.57,0.489,0.898,1.049,0.898
		c0.348,0,0.703-0.111,0.995-0.428L75.326,36.279z M72.677,33.256h-0.503l-1.367,1.646l-0.013-0.006v-3.266h-0.422v4.648h0.422
		v-0.807l0.565-0.662l0.95,1.469h0.516l-1.18-1.809L72.677,33.256z M68.563,33.256h-0.422v3.023h0.422v-2.02
		c0.217-0.385,0.447-0.645,0.795-0.645c0.118,0,0.193,0.012,0.286,0.055l0.056-0.465c-0.087-0.018-0.174-0.023-0.255-0.023
		c-0.422,0-0.714,0.309-0.882,0.643V33.256z M66.637,34.854v0.701c-0.286,0.273-0.622,0.453-0.971,0.453
		c-0.354,0-0.64-0.236-0.64-0.604c0-0.471,0.485-0.637,0.901-0.637C66.146,34.768,66.376,34.791,66.637,34.854 M66.68,36.279h0.378
		v-1.846c0-0.783-0.279-1.252-1.18-1.252c-0.397,0-0.87,0.135-1.149,0.266l0.143,0.379c0.236-0.133,0.634-0.262,0.988-0.262
		c0.528,0,0.777,0.279,0.777,0.781v0.168c-0.274-0.068-0.485-0.094-0.69-0.094c-0.646,0-1.342,0.291-1.342,1.035
		c0,0.57,0.49,0.898,1.05,0.898c0.349,0,0.702-0.111,0.994-0.428L66.68,36.279z M63.555,31.941h-0.8l-1.43,3.607l-1.423-3.607
		h-0.795v4.338h0.459v-3.955l1.585,3.955h0.341l1.604-3.967v3.967h0.459V31.941z M56.943,36.359l0.28-0.314l-1.603-1.414
		l-0.28,0.316l0.535,0.471c-0.311,0.41-0.628,0.533-1.044,0.533c-0.559,0-1.031-0.414-1.031-0.91c0-0.41,0.236-0.744,0.621-0.918
		l0.099,0.086l0.268-0.322c-0.361-0.322-0.665-0.588-0.665-0.961c0-0.422,0.366-0.656,0.745-0.656c0.305,0,0.578,0.154,0.677,0.434
		l0.404-0.123c-0.13-0.453-0.602-0.713-1.068-0.713c-0.584,0-1.192,0.402-1.192,1.021c0,0.354,0.167,0.664,0.446,0.955
		c-0.484,0.211-0.769,0.645-0.769,1.191c0,0.682,0.651,1.318,1.378,1.318c0.553,0,1.025-0.16,1.416-0.688L56.943,36.359z
		 M50.419,33.256h-0.422v3.023h0.422v-2.02c0.217-0.385,0.447-0.645,0.795-0.645c0.118,0,0.192,0.012,0.286,0.055l0.055-0.465
		c-0.087-0.018-0.173-0.023-0.254-0.023c-0.423,0-0.715,0.309-0.882,0.643V33.256z M48.492,34.854v0.701
		c-0.286,0.273-0.621,0.453-0.969,0.453c-0.354,0-0.64-0.236-0.64-0.604c0-0.471,0.484-0.637,0.901-0.637
		C48,34.768,48.23,34.791,48.492,34.854 M48.536,36.279h0.378v-1.846c0-0.783-0.279-1.252-1.18-1.252
		c-0.398,0-0.87,0.135-1.149,0.266l0.143,0.379c0.236-0.133,0.633-0.262,0.988-0.262c0.528,0,0.776,0.279,0.776,0.781v0.168
		c-0.273-0.068-0.484-0.094-0.689-0.094c-0.647,0-1.342,0.291-1.342,1.035c0,0.57,0.49,0.898,1.049,0.898
		c0.348,0,0.703-0.111,0.995-0.428L48.536,36.279z M42.961,33.256v3.023h0.422v-2.008c0.198-0.385,0.565-0.707,1.019-0.707
		c0.677,0,0.783,0.576,0.783,1.146v1.568h0.421v-1.637c0-0.912-0.279-1.461-1.142-1.461c-0.466,0-0.839,0.203-1.081,0.605v-0.531
		H42.961z M41.85,36.279v-3.023h-0.422v2.008c-0.199,0.385-0.565,0.707-1.019,0.707c-0.677,0-0.783-0.578-0.783-1.146v-1.568h-0.422
		v1.635c0,0.912,0.279,1.463,1.143,1.463c0.466,0,0.839-0.205,1.081-0.605v0.531H41.85z M35.528,33.256v3.023h0.422v-2.008
		c0.198-0.385,0.565-0.707,1.019-0.707c0.677,0,0.783,0.576,0.783,1.146v1.568h0.421v-1.637c0-0.912-0.279-1.461-1.142-1.461
		c-0.466,0-0.839,0.203-1.081,0.605v-0.531H35.528z M31.801,33.256v3.023h0.422v-2.008c0.198-0.385,0.565-0.707,1.019-0.707
		c0.677,0,0.783,0.576,0.783,1.146v1.568h0.421v-1.637c0-0.912-0.279-1.461-1.142-1.461c-0.466,0-0.839,0.203-1.081,0.605v-0.531
		H31.801z M30.188,31.998h-0.434v0.582h0.434V31.998z M29.033,31.998h-0.434v0.582h0.434V31.998z M30.48,34.768
		c0,0.631-0.417,1.203-1.094,1.203c-0.677,0-1.094-0.572-1.094-1.203c0-0.633,0.417-1.203,1.094-1.203
		C30.063,33.564,30.48,34.135,30.48,34.768 M29.387,33.182c-0.901,0-1.528,0.705-1.528,1.586c0,0.879,0.627,1.586,1.528,1.586
		c0.901,0,1.528-0.707,1.528-1.586C30.915,33.887,30.288,33.182,29.387,33.182 M26.822,36.279v-4.338h-0.459v1.871h-2.51v-1.871
		h-0.459v4.338h0.459v-2.047h2.51v2.047H26.822z"/>
</g>
<polygon points="50.86,15.862 50.86,1.679 45.657,1.679 45.657,27.271 50.86,27.271 "/>
<polygon points="56.211,16.082 63.102,8.037 57.164,8.037 50.86,15.423 50.86,16.76 57.164,27.271 63.54,27.271 "/>
<g>
	<defs>
		<rect id="SVGID_3_" y="0.49" width="119.055" height="35.869"/>
	</defs>
	<clipPath id="SVGID_4_">
		<use xlink:href="#SVGID_3_"  overflow="visible"/>
	</clipPath>
	<path clip-path="url(#SVGID_4_)" d="M9.38,22.887h1.209c1.539,0,3.152,0,4.251-0.549c0.916-0.477,1.466-1.244,1.466-2.561
		c0-2.121-1.392-3.438-3.995-3.438H9.38V22.887z M9.38,12.098h1.465c3.006,0,4.764-0.987,4.764-2.998
		c0-1.171-0.476-1.902-1.099-2.377c-0.989-0.659-2.455-0.659-4.104-0.659H9.38V12.098z M10.882,1.676
		c2.455,0,5.057,0.402,6.963,1.646c1.979,1.28,3.005,3.291,3.005,5.595c0,2.121-1.1,3.986-3.225,4.937
		c2.602,0.877,4.288,3.108,4.288,5.816c0,3.033-1.796,5.41-4.581,6.58c-1.943,0.805-4.435,1.023-6.743,1.023h-6.45V1.676H10.882z"/>
	<path clip-path="url(#SVGID_4_)" d="M36.313,18.9c-0.989-0.219-1.832-0.328-2.639-0.328c-1.906,0-4.141,0.693-4.141,2.961
		c0,1.682,1.392,2.559,2.932,2.559c1.503,0,2.749-0.658,3.848-1.645V18.9z M37.01,27.275l-0.403-1.646
		c-1.246,1.535-3.189,2.084-5.241,2.084c-3.591,0-6.925-2.156-6.925-6.107c0-4.717,4.396-6.216,8.392-6.216
		c1.062,0,2.272,0.146,3.481,0.402v-0.292c0-2.414-0.989-3.877-3.811-3.877c-2.199,0-4.141,0.805-5.828,1.683l-1.392-3.731
		C27.738,8.368,30.706,7.6,33.565,7.6c5.35,0,7.952,3.108,7.952,8.118v11.557H37.01z"/>
	<path clip-path="url(#SVGID_4_)" d="M76.467,18.9c-0.989-0.219-1.833-0.328-2.639-0.328c-1.906,0-4.141,0.693-4.141,2.961
		c0,1.682,1.393,2.559,2.932,2.559c1.503,0,2.748-0.658,3.848-1.645V18.9z M77.163,27.275l-0.402-1.646
		c-1.247,1.535-3.188,2.084-5.241,2.084c-3.592,0-6.927-2.156-6.927-6.107c0-4.717,4.398-6.216,8.393-6.216
		c1.062,0,2.271,0.146,3.481,0.402v-0.292c0-2.414-0.989-3.877-3.811-3.877c-2.2,0-4.143,0.805-5.828,1.683l-1.392-3.731
		C67.891,8.368,70.86,7.6,73.718,7.6c5.351,0,7.953,3.108,7.953,8.118v11.557H77.163z"/>
	<path clip-path="url(#SVGID_4_)" d="M92.49,12.354v7.46c0,0.584,0,1.098,0.072,1.646c0.146,1.133,0.587,1.828,1.687,1.828
		c0.806,0,1.43-0.221,2.089-0.549l1.612,3.84c-1.246,0.73-3.078,1.133-4.581,1.133c-3.005,0-5.021-1.646-5.718-4.131
		c-0.293-0.951-0.365-2.086-0.365-3.221v-8.007h-2.659V8.039h2.659V1.704h5.204v6.335h4.91v4.315H92.49z"/>
</g>
<rect x="100.656" y="8.039" width="5.204" height="19.235"/>
<rect x="109.712" y="1.681" width="5.204" height="25.594"/>
<g>
	<defs>
		<rect id="SVGID_5_" y="0.49" width="119.055" height="35.869"/>
	</defs>
	<clipPath id="SVGID_6_">
		<use xlink:href="#SVGID_5_"  overflow="visible"/>
	</clipPath>
	<path clip-path="url(#SVGID_6_)" d="M100.246,3.496c0-1.659,1.349-3.005,3.012-3.005s3.013,1.346,3.013,3.005
		c0,1.66-1.35,3.005-3.013,3.005S100.246,5.156,100.246,3.496"/>
</g>
<polygon points="0.003,21.166 6.738,24.689 6.738,21.166 "/>
<polygon points="112.195,21.166 112.195,24.586 119.048,21.166 "/>
<polygon fill="#65A0C1" points="0,13.843 0,14.895 0,21.164 0,21.166 0.003,21.166 6.737,21.166 112.196,21.166 119.048,21.166
	119.055,21.166 119.055,13.843 "/>
</svg>
