<?xml version="1.0" encoding="utf-8"?>
<!-- Generator: Adobe Illustrator 16.0.0, SVG Export Plug-In . SVG Version: 6.00 Build 0)  -->
<!DOCTYPE svg PUBLIC "-//W3C//DTD SVG 1.1//EN" "http://www.w3.org/Graphics/SVG/1.1/DTD/svg11.dtd">
<svg version="1.1" id="Layer_1" xmlns="http://www.w3.org/2000/svg" xmlns:xlink="http://www.w3.org/1999/xlink" x="0px" y="0px"
	 width="459.87px" height="100.768px" viewBox="0 0 459.87 100.768" enable-background="new 0 0 459.87 100.768"
	 xml:space="preserve">
<g>
	<path fill="#002B49" d="M42.035-0.02c9.482,0,19.532,1.557,26.895,6.372c7.644,4.953,11.605,12.738,11.605,21.658
		c0,8.209-4.246,15.428-12.454,19.108c10.049,3.398,16.561,12.032,16.561,22.506c0,11.75-6.937,20.951-17.694,25.48
		c-7.504,3.115-17.13,3.965-26.049,3.965H15.988V-0.02H42.035z M36.23,40.324h5.661c11.609,0,18.402-3.824,18.402-11.608
		c0-4.53-1.839-7.36-4.248-9.202c-3.818-2.546-9.483-2.546-15.854-2.546H36.23V40.324z M36.23,82.081h4.669
		c5.946,0,12.176,0,16.42-2.122c3.541-1.84,5.663-4.812,5.663-9.908c0-8.212-5.377-13.307-15.426-13.307H36.23V82.081z"/>
	<path fill="#002B49" d="M142.956,99.07L141.4,92.7c-4.812,5.944-12.316,8.068-20.245,8.068c-13.872,0-26.753-8.353-26.753-23.64
		c0-18.262,16.987-24.064,32.417-24.064c4.105,0,8.776,0.564,13.447,1.556v-1.132c0-9.341-3.82-15.004-14.72-15.004
		c-8.495,0-15.996,3.113-22.509,6.513l-5.379-14.442c9.484-4.669,20.951-7.643,31.991-7.643c20.669,0,30.72,12.033,30.72,31.426
		V99.07H142.956z M140.267,66.654c-3.82-0.85-7.076-1.273-10.191-1.273c-7.363,0-15.996,2.688-15.996,11.466
		c0,6.511,5.377,9.905,11.323,9.905c5.805,0,10.618-2.547,14.864-6.369V66.654z"/>
	<path fill="#002B49" d="M220.81,99.07l-17.13-27.605l-7.219,8.354V99.07h-20.103V0h20.103v54.905h0.283L220.81,24.61h22.93
		l-26.612,31.142l28.312,43.317H220.81z"/>
	<path fill="#002B49" d="M300.075,99.07l-1.556-6.37c-4.815,5.944-12.318,8.068-20.244,8.068c-13.873,0-26.756-8.353-26.756-23.64
		c0-18.262,16.987-24.064,32.417-24.064c4.105,0,8.776,0.564,13.447,1.556v-1.132c0-9.341-3.821-15.004-14.723-15.004
		c-8.493,0-15.995,3.113-22.506,6.513l-5.381-14.442c9.486-4.669,20.953-7.643,31.992-7.643c20.669,0,30.722,12.033,30.722,31.426
		V99.07H300.075z M297.384,66.654c-3.821-0.85-7.077-1.273-10.192-1.273c-7.36,0-15.995,2.688-15.995,11.466
		c0,6.511,5.382,9.905,11.326,9.905c5.805,0,10.614-2.547,14.861-6.369V66.654z"/>
	<path fill="#002B49" d="M357.257,41.313v28.878c0,2.267,0,4.247,0.283,6.366c0.567,4.394,2.267,7.08,6.514,7.08
		c3.113,0,5.521-0.848,8.067-2.121l6.229,14.861c-4.815,2.832-11.892,4.39-17.695,4.39c-11.608,0-19.394-6.371-22.084-15.995
		c-1.131-3.682-1.415-8.07-1.415-12.459v-31h-11.618V24.61h11.618V0.086h20.101V24.61h18.97v16.703H357.257z"/>
	<path fill="#002B49" d="M389.812,14.278V0h20.1v14.278H389.812z M389.812,99.07V24.61h20.1V99.07H389.812z"/>
	<path fill="#002B49" d="M443.883,99.07h-20.1V0h20.1V99.07z"/>
</g>
<g>
	<polygon fill="#002B49" points="26.496,33.754 0,47.004 26.496,47.004 	"/>
	<polygon fill="#002B49" points="433.846,33.359 433.846,47.004 459.865,47.004 	"/>
	<polygon fill="#85D4F1" points="459.865,47.004 433.846,47.004 26.496,47.004 0,47.004 0,70.564 0,75.347 459.87,75.347
		459.87,71.268 459.87,47.006 459.87,47.004 	"/>
</g>
</svg>
